# xmcd CD database file
#
# Track frame offsets:
#	182
#	13597
#	34520
#	47855
#	65977
#	77217
#	96620
#	111665
#	124675
#	139087
#	150952
#	164895
#	182937
#	196842
#	210265
#	222705
#	235100
#	251042
#	265605
#	279322
#	292285
#	305825
#
# Disc length: 4222 seconds
#
# Revision: 7
# Processed by: cddbd v1.4b41PL3 Copyright (c) Steve Scherf et al.
# Submitted via: CDex 1.40Beta5
#
DISCID=5b107c16
DTITLE=Hank Williams Jr. - Hank 22
DYEAR=1991
DGENRE=Country
TTITLE0=All My Rowdy Friends Are Coming Over Tonight
TTITLE1=Man Of Steel
TTITLE2=Attitude Adjustment
TTITLE3=Family Tradition
TTITLE4=Texas Women
TTITLE5=A Country Boy Can Survive
TTITLE6=Buck Naked
TTITLE7=Women I've Never Had
TTITLE8=Whiskey Bent And Hell Bound
TTITLE9=Dixie On My Mind
TTITLE10=Old Habits
TTITLE11=Country State Of Mind
TTITLE12=Good Friends, Good Whiskey, Good Lovin'
TTITLE13=I'm For Love
TTITLE14=This Ain't Dallas
TTITLE15=Born To Boogie
TTITLE16=Young Country
TTITLE17=Heaven Can't Be Found
TTITLE18=Finders Are Keepers
TTITLE19=There's A Tear In My Beer
TTITLE20=Stoned At The Jukebox
TTITLE21=Monday Night Football Boogie
EXTD=YEAR: 1991 ID3G:   2
EXTT0=
EXTT1=
EXTT2=
EXTT3=
EXTT4=
EXTT5=
EXTT6=
EXTT7=
EXTT8=
EXTT9=
EXTT10=
EXTT11=
EXTT12=
EXTT13=
EXTT14=
EXTT15=
EXTT16=
EXTT17=
EXTT18=
EXTT19=
EXTT20=
EXTT21=
PLAYORDER=
